<svg xmlns="http://www.w3.org/2000/svg" xmlns:xlink="http://www.w3.org/1999/xlink" width="419" zoomAndPan="magnify" viewBox="0 0 314.25 77.999999" height="104" preserveAspectRatio="xMidYMid meet" version="1.0"><defs><g/><clipPath id="e8f71df050"><path d="M 37 6.804688 L 117.46875 6.804688 L 117.46875 58 L 37 58 Z M 37 6.804688 " clip-rule="nonzero"/></clipPath><clipPath id="0861ea39d5"><path d="M 48 59 L 67 59 L 67 77.136719 L 48 77.136719 Z M 48 59 " clip-rule="nonzero"/></clipPath><clipPath id="fe8e24aa93"><path d="M 74 59 L 92 59 L 92 77.136719 L 74 77.136719 Z M 74 59 " clip-rule="nonzero"/></clipPath><clipPath id="061a02fffc"><path d="M 123.515625 50.605469 L 287.75 50.605469 L 287.75 72.710938 L 123.515625 72.710938 Z M 123.515625 50.605469 " clip-rule="nonzero"/></clipPath><clipPath id="a0b0dc3f1e"><path d="M 62.515625 43.914062 L 78.09375 43.914062 L 78.09375 48.519531 L 62.515625 48.519531 Z M 62.515625 43.914062 " clip-rule="nonzero"/></clipPath><clipPath id="f8301a8bbe"><path d="M 84.613281 26.4375 L 99.914062 26.4375 L 99.914062 31 L 84.613281 31 Z M 84.613281 26.4375 " clip-rule="nonzero"/></clipPath><clipPath id="3add5c9337"><path d="M 62.515625 26.4375 L 99.914062 26.4375 L 99.914062 48.519531 L 62.515625 48.519531 Z M 62.515625 26.4375 " clip-rule="nonzero"/></clipPath></defs><g clip-path="url(#e8f71df050)"><path fill="#ff9e01" d="M 117.46875 20.550781 L 109.347656 54.28125 C 109.347656 54.605469 109.285156 54.917969 109.160156 55.21875 C 109.035156 55.515625 108.859375 55.78125 108.628906 56.011719 C 108.398438 56.238281 108.136719 56.414062 107.835938 56.539062 C 107.539062 56.664062 107.226562 56.726562 106.902344 56.730469 L 52.175781 57.125 C 51.851562 57.125 51.539062 57.0625 51.238281 56.9375 C 50.941406 56.8125 50.675781 56.636719 50.445312 56.40625 C 50.21875 56.175781 50.042969 55.914062 49.917969 55.613281 C 49.792969 55.316406 49.730469 55.003906 49.726562 54.679688 L 49.726562 20.546875 C 49.726562 20.480469 49.730469 20.414062 49.738281 20.347656 L 48.996094 13.742188 L 40.90625 13.742188 C 40.460938 13.726562 40.03125 13.625 39.625 13.441406 C 39.214844 13.257812 38.855469 13.003906 38.546875 12.679688 C 38.234375 12.359375 37.996094 11.988281 37.828125 11.574219 C 37.660156 11.160156 37.578125 10.726562 37.578125 10.277344 C 37.578125 9.832031 37.660156 9.398438 37.828125 8.984375 C 37.996094 8.570312 38.234375 8.199219 38.546875 7.878906 C 38.855469 7.554688 39.214844 7.300781 39.625 7.117188 C 40.03125 6.933594 40.460938 6.832031 40.90625 6.816406 L 55.1875 6.816406 C 55.1875 6.828125 55.1875 6.839844 55.1875 6.851562 L 55.960938 13.746094 L 56.449219 18.105469 L 115.023438 18.105469 C 115.347656 18.105469 115.660156 18.167969 115.957031 18.292969 C 116.257812 18.417969 116.523438 18.59375 116.75 18.824219 C 116.980469 19.054688 117.15625 19.316406 117.28125 19.617188 C 117.40625 19.917969 117.46875 20.226562 117.46875 20.550781 Z M 117.46875 20.550781 " fill-opacity="1" fill-rule="nonzero"/></g><g clip-path="url(#0861ea39d5)"><path fill="#ff7312" d="M 66.757812 68.21875 C 66.757812 68.804688 66.699219 69.382812 66.585938 69.957031 C 66.472656 70.53125 66.304688 71.085938 66.078125 71.628906 C 65.855469 72.167969 65.582031 72.683594 65.253906 73.167969 C 64.929688 73.65625 64.558594 74.105469 64.148438 74.519531 C 63.734375 74.933594 63.28125 75.304688 62.796875 75.628906 C 62.308594 75.953125 61.796875 76.226562 61.253906 76.453125 C 60.714844 76.675781 60.15625 76.84375 59.582031 76.960938 C 59.007812 77.074219 58.429688 77.128906 57.84375 77.128906 C 57.257812 77.128906 56.679688 77.074219 56.105469 76.960938 C 55.53125 76.84375 54.972656 76.675781 54.433594 76.453125 C 53.890625 76.226562 53.378906 75.953125 52.890625 75.628906 C 52.40625 75.304688 51.953125 74.933594 51.539062 74.519531 C 51.125 74.105469 50.757812 73.65625 50.433594 73.167969 C 50.105469 72.683594 49.832031 72.167969 49.609375 71.628906 C 49.382812 71.085938 49.214844 70.53125 49.101562 69.957031 C 48.988281 69.382812 48.929688 68.804688 48.929688 68.21875 C 48.929688 67.632812 48.988281 67.050781 49.101562 66.480469 C 49.214844 65.90625 49.382812 65.347656 49.609375 64.808594 C 49.832031 64.265625 50.105469 63.753906 50.433594 63.265625 C 50.757812 62.777344 51.125 62.328125 51.539062 61.914062 C 51.953125 61.5 52.40625 61.132812 52.890625 60.808594 C 53.378906 60.480469 53.890625 60.207031 54.433594 59.984375 C 54.972656 59.757812 55.53125 59.589844 56.105469 59.476562 C 56.679688 59.363281 57.257812 59.304688 57.84375 59.304688 C 58.429688 59.304688 59.007812 59.363281 59.582031 59.476562 C 60.15625 59.589844 60.714844 59.757812 61.253906 59.984375 C 61.796875 60.207031 62.308594 60.480469 62.796875 60.808594 C 63.28125 61.132812 63.734375 61.5 64.148438 61.914062 C 64.558594 62.328125 64.929688 62.777344 65.253906 63.265625 C 65.582031 63.753906 65.855469 64.265625 66.078125 64.808594 C 66.304688 65.347656 66.472656 65.90625 66.585938 66.480469 C 66.699219 67.050781 66.757812 67.632812 66.757812 68.21875 Z M 66.757812 68.21875 " fill-opacity="1" fill-rule="nonzero"/></g><g clip-path="url(#fe8e24aa93)"><path fill="#ff7312" d="M 91.914062 68.21875 C 91.914062 68.804688 91.859375 69.382812 91.742188 69.957031 C 91.628906 70.53125 91.460938 71.085938 91.238281 71.628906 C 91.011719 72.167969 90.738281 72.683594 90.414062 73.167969 C 90.085938 73.65625 89.71875 74.105469 89.304688 74.519531 C 88.890625 74.933594 88.441406 75.304688 87.953125 75.628906 C 87.46875 75.953125 86.953125 76.226562 86.414062 76.453125 C 85.871094 76.675781 85.3125 76.84375 84.742188 76.960938 C 84.167969 77.074219 83.585938 77.128906 83 77.128906 C 82.414062 77.128906 81.835938 77.074219 81.261719 76.960938 C 80.6875 76.84375 80.128906 76.675781 79.589844 76.453125 C 79.050781 76.226562 78.535156 75.953125 78.050781 75.628906 C 77.5625 75.304688 77.113281 74.933594 76.699219 74.519531 C 76.285156 74.105469 75.914062 73.65625 75.589844 73.167969 C 75.265625 72.683594 74.988281 72.167969 74.765625 71.628906 C 74.542969 71.085938 74.371094 70.53125 74.257812 69.957031 C 74.144531 69.382812 74.085938 68.804688 74.085938 68.21875 C 74.085938 67.632812 74.144531 67.050781 74.257812 66.480469 C 74.371094 65.90625 74.542969 65.347656 74.765625 64.808594 C 74.988281 64.265625 75.265625 63.753906 75.589844 63.265625 C 75.914062 62.777344 76.285156 62.328125 76.699219 61.914062 C 77.113281 61.5 77.5625 61.132812 78.050781 60.808594 C 78.535156 60.480469 79.050781 60.207031 79.589844 59.984375 C 80.128906 59.757812 80.6875 59.589844 81.261719 59.476562 C 81.835938 59.363281 82.414062 59.304688 83 59.304688 C 83.585938 59.304688 84.167969 59.363281 84.742188 59.476562 C 85.3125 59.589844 85.871094 59.757812 86.414062 59.984375 C 86.953125 60.207031 87.46875 60.480469 87.953125 60.808594 C 88.441406 61.132812 88.890625 61.5 89.304688 61.914062 C 89.71875 62.328125 90.085938 62.777344 90.414062 63.265625 C 90.738281 63.753906 91.011719 64.265625 91.238281 64.808594 C 91.460938 65.347656 91.628906 65.90625 91.742188 66.480469 C 91.859375 67.050781 91.914062 67.632812 91.914062 68.21875 Z M 91.914062 68.21875 " fill-opacity="1" fill-rule="nonzero"/></g><path fill="#ff9e01" d="M 23.375 21.074219 L 43.777344 21.074219 C 44.09375 21.074219 44.398438 21.136719 44.6875 21.257812 C 44.980469 21.378906 45.238281 21.550781 45.460938 21.773438 C 45.683594 21.996094 45.855469 22.25 45.976562 22.542969 C 46.09375 22.835938 46.15625 23.136719 46.15625 23.453125 L 46.15625 24.046875 C 46.15625 24.363281 46.09375 24.664062 45.976562 24.957031 C 45.855469 25.246094 45.683594 25.503906 45.460938 25.726562 C 45.238281 25.949219 44.980469 26.121094 44.6875 26.242188 C 44.398438 26.363281 44.09375 26.421875 43.777344 26.421875 L 23.375 26.421875 C 23.058594 26.421875 22.757812 26.363281 22.464844 26.242188 C 22.175781 26.121094 21.917969 25.949219 21.695312 25.726562 C 21.472656 25.503906 21.300781 25.246094 21.179688 24.957031 C 21.058594 24.664062 20.996094 24.363281 20.996094 24.046875 L 20.996094 23.453125 C 20.996094 23.136719 21.058594 22.835938 21.179688 22.542969 C 21.300781 22.25 21.472656 21.996094 21.695312 21.773438 C 21.917969 21.550781 22.175781 21.378906 22.464844 21.257812 C 22.757812 21.136719 23.058594 21.074219 23.375 21.074219 Z M 23.375 21.074219 " fill-opacity="1" fill-rule="nonzero"/><path fill="#ff9e01" d="M 23.375 54.351562 L 43.777344 54.351562 C 44.09375 54.351562 44.398438 54.414062 44.6875 54.53125 C 44.980469 54.652344 45.238281 54.824219 45.460938 55.046875 C 45.683594 55.269531 45.855469 55.527344 45.976562 55.820312 C 46.09375 56.109375 46.15625 56.414062 46.15625 56.730469 L 46.15625 57.324219 C 46.15625 57.636719 46.09375 57.941406 45.976562 58.234375 C 45.855469 58.523438 45.683594 58.78125 45.460938 59.003906 C 45.238281 59.226562 44.980469 59.398438 44.6875 59.519531 C 44.398438 59.640625 44.09375 59.699219 43.777344 59.699219 L 23.375 59.699219 C 23.058594 59.699219 22.757812 59.640625 22.464844 59.519531 C 22.175781 59.398438 21.917969 59.226562 21.695312 59.003906 C 21.472656 58.78125 21.300781 58.523438 21.179688 58.234375 C 21.058594 57.941406 20.996094 57.636719 20.996094 57.324219 L 20.996094 56.730469 C 20.996094 56.414062 21.058594 56.109375 21.179688 55.820312 C 21.300781 55.527344 21.472656 55.269531 21.695312 55.046875 C 21.917969 54.824219 22.175781 54.652344 22.464844 54.53125 C 22.757812 54.414062 23.058594 54.351562 23.375 54.351562 Z M 23.375 54.351562 " fill-opacity="1" fill-rule="nonzero"/><path fill="#ff9e01" d="M 2.675781 37.316406 L 43.480469 37.316406 C 43.835938 37.316406 44.175781 37.386719 44.503906 37.519531 C 44.832031 37.65625 45.121094 37.851562 45.371094 38.101562 C 45.625 38.351562 45.816406 38.640625 45.953125 38.96875 C 46.089844 39.296875 46.15625 39.636719 46.15625 39.992188 C 46.15625 40.347656 46.089844 40.6875 45.953125 41.015625 C 45.816406 41.34375 45.625 41.632812 45.371094 41.882812 C 45.121094 42.132812 44.832031 42.328125 44.503906 42.460938 C 44.175781 42.597656 43.835938 42.664062 43.480469 42.664062 L 2.675781 42.664062 C 2.320312 42.664062 1.976562 42.597656 1.652344 42.460938 C 1.324219 42.328125 1.035156 42.132812 0.785156 41.882812 C 0.53125 41.632812 0.339844 41.34375 0.203125 41.015625 C 0.0664062 40.6875 0 40.347656 0 39.992188 C 0 39.636719 0.0664062 39.296875 0.203125 38.96875 C 0.339844 38.640625 0.53125 38.351562 0.785156 38.101562 C 1.035156 37.851562 1.324219 37.65625 1.652344 37.519531 C 1.976562 37.386719 2.320312 37.316406 2.675781 37.316406 Z M 2.675781 37.316406 " fill-opacity="1" fill-rule="nonzero"/><g fill="#000000" fill-opacity="1"><g transform="translate(117.218327, 47.656014)"><g><path d="M 8.265625 0.515625 C 6.734375 0.515625 5.460938 0.363281 4.453125 0.0625 C 3.441406 -0.238281 2.648438 -0.644531 2.078125 -1.15625 C 1.515625 -1.664062 1.113281 -2.242188 0.875 -2.890625 C 0.632812 -3.546875 0.515625 -4.238281 0.515625 -4.96875 L 0.515625 -9.65625 L 7.265625 -9.65625 L 7.265625 -4.90625 C 7.265625 -4.75 7.3125 -4.601562 7.40625 -4.46875 C 7.5 -4.34375 7.660156 -4.28125 7.890625 -4.28125 C 8.085938 -4.28125 8.234375 -4.335938 8.328125 -4.453125 C 8.429688 -4.578125 8.484375 -4.726562 8.484375 -4.90625 C 8.484375 -5.457031 8.460938 -6 8.421875 -6.53125 C 8.390625 -7.0625 8.316406 -7.539062 8.203125 -7.96875 C 7.992188 -8.863281 7.703125 -9.648438 7.328125 -10.328125 C 6.960938 -11.015625 6.539062 -11.640625 6.0625 -12.203125 C 5.582031 -12.773438 5.085938 -13.320312 4.578125 -13.84375 C 4.066406 -14.363281 3.570312 -14.910156 3.09375 -15.484375 C 2.625 -16.054688 2.195312 -16.691406 1.8125 -17.390625 C 1.425781 -18.097656 1.117188 -18.914062 0.890625 -19.84375 C 0.660156 -20.769531 0.546875 -21.847656 0.546875 -23.078125 L 0.546875 -23.9375 C 0.609375 -25.9375 1.253906 -27.359375 2.484375 -28.203125 C 3.710938 -29.054688 5.441406 -29.484375 7.671875 -29.484375 C 9.390625 -29.484375 10.796875 -29.253906 11.890625 -28.796875 C 12.984375 -28.335938 13.789062 -27.695312 14.3125 -26.875 C 14.84375 -26.050781 15.109375 -25.09375 15.109375 -24 L 15.109375 -20.5 L 8.609375 -20.5 L 8.609375 -24.09375 C 8.609375 -24.257812 8.554688 -24.398438 8.453125 -24.515625 C 8.347656 -24.628906 8.195312 -24.6875 8 -24.6875 C 7.8125 -24.6875 7.660156 -24.628906 7.546875 -24.515625 C 7.429688 -24.398438 7.375 -24.25 7.375 -24.0625 C 7.375 -23.675781 7.410156 -23.289062 7.484375 -22.90625 C 7.554688 -22.53125 7.640625 -22.1875 7.734375 -21.875 C 7.953125 -21.226562 8.242188 -20.644531 8.609375 -20.125 C 8.984375 -19.613281 9.40625 -19.113281 9.875 -18.625 C 10.351562 -18.144531 10.847656 -17.640625 11.359375 -17.109375 C 11.867188 -16.578125 12.363281 -15.972656 12.84375 -15.296875 C 13.320312 -14.628906 13.75 -13.851562 14.125 -12.96875 C 14.507812 -12.082031 14.816406 -11.046875 15.046875 -9.859375 C 15.273438 -8.671875 15.390625 -7.289062 15.390625 -5.71875 L 15.390625 -4.609375 C 15.359375 -3.453125 15.035156 -2.492188 14.421875 -1.734375 C 13.804688 -0.972656 12.972656 -0.40625 11.921875 -0.03125 C 10.867188 0.332031 9.648438 0.515625 8.265625 0.515625 Z M 8.265625 0.515625 "/></g></g></g><g fill="#000000" fill-opacity="1"><g transform="translate(135.60552, 47.656014)"><g><path d="M 8.484375 0.578125 C 5.859375 0.578125 3.875 0.101562 2.53125 -0.84375 C 1.1875 -1.800781 0.515625 -3.21875 0.515625 -5.09375 L 0.515625 -28.984375 L 7.90625 -28.984375 L 7.90625 -5.96875 C 7.90625 -5.289062 8.101562 -4.953125 8.5 -4.953125 C 8.90625 -4.953125 9.109375 -5.289062 9.109375 -5.96875 L 9.109375 -28.984375 L 16.4375 -28.984375 L 16.4375 -5.09375 C 16.4375 -3.21875 15.765625 -1.800781 14.421875 -0.84375 C 13.085938 0.101562 11.109375 0.578125 8.484375 0.578125 Z M 8.484375 0.578125 "/></g></g></g><g fill="#000000" fill-opacity="1"><g transform="translate(155.037018, 47.656014)"><g><path d="M 0.546875 0 L 0.546875 -28.984375 L 8.015625 -28.984375 C 9.210938 -28.984375 10.296875 -28.910156 11.265625 -28.765625 C 12.234375 -28.617188 13.070312 -28.335938 13.78125 -27.921875 C 14.5 -27.515625 15.046875 -26.929688 15.421875 -26.171875 C 15.796875 -25.410156 15.984375 -24.414062 15.984375 -23.1875 L 15.984375 -12.515625 C 15.972656 -11.335938 15.773438 -10.375 15.390625 -9.625 C 15.003906 -8.875 14.472656 -8.296875 13.796875 -7.890625 C 13.128906 -7.492188 12.347656 -7.21875 11.453125 -7.0625 C 10.554688 -6.90625 9.582031 -6.828125 8.53125 -6.828125 L 8.078125 -6.828125 L 8.078125 0 Z M 7.71875 -11.40625 L 8.25 -11.40625 C 8.488281 -11.40625 8.660156 -11.472656 8.765625 -11.609375 C 8.878906 -11.742188 8.9375 -11.972656 8.9375 -12.296875 L 8.9375 -22.984375 C 8.9375 -23.316406 8.882812 -23.550781 8.78125 -23.6875 C 8.6875 -23.820312 8.492188 -23.890625 8.203125 -23.890625 L 7.71875 -23.890625 Z M 7.71875 -11.40625 "/></g></g></g><g fill="#000000" fill-opacity="1"><g transform="translate(173.97833, 47.656014)"><g><path d="M 0.546875 0 L 0.546875 -28.984375 L 12.5625 -28.984375 L 12.5625 -23.953125 L 8.171875 -23.953125 L 8.171875 -16.21875 L 11.65625 -16.21875 L 11.65625 -12.53125 L 8.171875 -12.53125 L 8.171875 -4.875 L 12.640625 -4.875 L 12.640625 0 Z M 0.546875 0 "/></g></g></g><g fill="#000000" fill-opacity="1"><g transform="translate(189.339186, 47.656014)"><g><path d="M 16.046875 0 L 8.9375 0 L 8.5 -10.078125 L 7.6875 -10.078125 L 7.6875 0 L 0.546875 0 L 0.546875 -28.984375 L 8.015625 -28.984375 C 9.210938 -28.984375 10.296875 -28.910156 11.265625 -28.765625 C 12.234375 -28.617188 13.070312 -28.335938 13.78125 -27.921875 C 14.5 -27.515625 15.046875 -26.929688 15.421875 -26.171875 C 15.796875 -25.410156 15.984375 -24.414062 15.984375 -23.1875 L 15.984375 -15.28125 C 15.984375 -14.40625 15.851562 -13.660156 15.59375 -13.046875 C 15.34375 -12.429688 14.984375 -11.925781 14.515625 -11.53125 Z M 7.71875 -14.140625 L 8.25 -14.140625 C 8.488281 -14.140625 8.660156 -14.203125 8.765625 -14.328125 C 8.878906 -14.460938 8.9375 -14.710938 8.9375 -15.078125 L 8.9375 -22.984375 C 8.9375 -23.316406 8.882812 -23.550781 8.78125 -23.6875 C 8.6875 -23.820312 8.492188 -23.890625 8.203125 -23.890625 L 7.71875 -23.890625 Z M 7.71875 -14.140625 "/></g></g></g><g fill="#000000" fill-opacity="1"><g transform="translate(208.30182, 47.656014)"><g><path d="M 8.265625 0.515625 C 6.734375 0.515625 5.460938 0.363281 4.453125 0.0625 C 3.441406 -0.238281 2.648438 -0.644531 2.078125 -1.15625 C 1.515625 -1.664062 1.113281 -2.242188 0.875 -2.890625 C 0.632812 -3.546875 0.515625 -4.238281 0.515625 -4.96875 L 0.515625 -9.65625 L 7.265625 -9.65625 L 7.265625 -4.90625 C 7.265625 -4.75 7.3125 -4.601562 7.40625 -4.46875 C 7.5 -4.34375 7.660156 -4.28125 7.890625 -4.28125 C 8.085938 -4.28125 8.234375 -4.335938 8.328125 -4.453125 C 8.429688 -4.578125 8.484375 -4.726562 8.484375 -4.90625 C 8.484375 -5.457031 8.460938 -6 8.421875 -6.53125 C 8.390625 -7.0625 8.316406 -7.539062 8.203125 -7.96875 C 7.992188 -8.863281 7.703125 -9.648438 7.328125 -10.328125 C 6.960938 -11.015625 6.539062 -11.640625 6.0625 -12.203125 C 5.582031 -12.773438 5.085938 -13.320312 4.578125 -13.84375 C 4.066406 -14.363281 3.570312 -14.910156 3.09375 -15.484375 C 2.625 -16.054688 2.195312 -16.691406 1.8125 -17.390625 C 1.425781 -18.097656 1.117188 -18.914062 0.890625 -19.84375 C 0.660156 -20.769531 0.546875 -21.847656 0.546875 -23.078125 L 0.546875 -23.9375 C 0.609375 -25.9375 1.253906 -27.359375 2.484375 -28.203125 C 3.710938 -29.054688 5.441406 -29.484375 7.671875 -29.484375 C 9.390625 -29.484375 10.796875 -29.253906 11.890625 -28.796875 C 12.984375 -28.335938 13.789062 -27.695312 14.3125 -26.875 C 14.84375 -26.050781 15.109375 -25.09375 15.109375 -24 L 15.109375 -20.5 L 8.609375 -20.5 L 8.609375 -24.09375 C 8.609375 -24.257812 8.554688 -24.398438 8.453125 -24.515625 C 8.347656 -24.628906 8.195312 -24.6875 8 -24.6875 C 7.8125 -24.6875 7.660156 -24.628906 7.546875 -24.515625 C 7.429688 -24.398438 7.375 -24.25 7.375 -24.0625 C 7.375 -23.675781 7.410156 -23.289062 7.484375 -22.90625 C 7.554688 -22.53125 7.640625 -22.1875 7.734375 -21.875 C 7.953125 -21.226562 8.242188 -20.644531 8.609375 -20.125 C 8.984375 -19.613281 9.40625 -19.113281 9.875 -18.625 C 10.351562 -18.144531 10.847656 -17.640625 11.359375 -17.109375 C 11.867188 -16.578125 12.363281 -15.972656 12.84375 -15.296875 C 13.320312 -14.628906 13.75 -13.851562 14.125 -12.96875 C 14.507812 -12.082031 14.816406 -11.046875 15.046875 -9.859375 C 15.273438 -8.671875 15.390625 -7.289062 15.390625 -5.71875 L 15.390625 -4.609375 C 15.359375 -3.453125 15.035156 -2.492188 14.421875 -1.734375 C 13.804688 -0.972656 12.972656 -0.40625 11.921875 -0.03125 C 10.867188 0.332031 9.648438 0.515625 8.265625 0.515625 Z M 8.265625 0.515625 "/></g></g></g><g fill="#000000" fill-opacity="1"><g transform="translate(226.68901, 47.656014)"><g><path d="M 2.75 0 L 2.75 -23.515625 L 0.171875 -23.515625 L 0.171875 -28.984375 L 12.8125 -28.984375 L 12.8125 -23.515625 L 10.234375 -23.515625 L 10.234375 0 Z M 2.75 0 "/></g></g></g><g fill="#000000" fill-opacity="1"><g transform="translate(242.156428, 47.656014)"><g><path d="M 0.421875 -7.21875 L 0.421875 -21.90625 C 0.421875 -24.382812 1.125 -26.265625 2.53125 -27.546875 C 3.9375 -28.835938 6.019531 -29.484375 8.78125 -29.484375 C 11.539062 -29.484375 13.625 -28.832031 15.03125 -27.53125 C 16.4375 -26.238281 17.140625 -24.332031 17.140625 -21.8125 L 17.140625 -7.21875 C 17.140625 -4.675781 16.4375 -2.753906 15.03125 -1.453125 C 13.625 -0.160156 11.539062 0.484375 8.78125 0.484375 C 6.019531 0.484375 3.953125 -0.164062 2.578125 -1.46875 C 1.210938 -2.78125 0.492188 -4.695312 0.421875 -7.21875 Z M 8.1875 -6.28125 C 8.1875 -5.875 8.382812 -5.671875 8.78125 -5.671875 C 9.175781 -5.671875 9.375 -5.875 9.375 -6.28125 L 9.375 -22.75 C 9.375 -23.15625 9.175781 -23.359375 8.78125 -23.359375 C 8.382812 -23.359375 8.1875 -23.15625 8.1875 -22.75 Z M 8.1875 -6.28125 "/></g></g></g><g fill="#000000" fill-opacity="1"><g transform="translate(262.205972, 47.656014)"><g><path d="M 16.046875 0 L 8.9375 0 L 8.5 -10.078125 L 7.6875 -10.078125 L 7.6875 0 L 0.546875 0 L 0.546875 -28.984375 L 8.015625 -28.984375 C 9.210938 -28.984375 10.296875 -28.910156 11.265625 -28.765625 C 12.234375 -28.617188 13.070312 -28.335938 13.78125 -27.921875 C 14.5 -27.515625 15.046875 -26.929688 15.421875 -26.171875 C 15.796875 -25.410156 15.984375 -24.414062 15.984375 -23.1875 L 15.984375 -15.28125 C 15.984375 -14.40625 15.851562 -13.660156 15.59375 -13.046875 C 15.34375 -12.429688 14.984375 -11.925781 14.515625 -11.53125 Z M 7.71875 -14.140625 L 8.25 -14.140625 C 8.488281 -14.140625 8.660156 -14.203125 8.765625 -14.328125 C 8.878906 -14.460938 8.9375 -14.710938 8.9375 -15.078125 L 8.9375 -22.984375 C 8.9375 -23.316406 8.882812 -23.550781 8.78125 -23.6875 C 8.6875 -23.820312 8.492188 -23.890625 8.203125 -23.890625 L 7.71875 -23.890625 Z M 7.71875 -14.140625 "/></g></g></g><g fill="#000000" fill-opacity="1"><g transform="translate(281.168606, 47.656014)"><g><path d="M 0.546875 0 L 0.546875 -28.984375 L 12.5625 -28.984375 L 12.5625 -23.953125 L 8.171875 -23.953125 L 8.171875 -16.21875 L 11.65625 -16.21875 L 11.65625 -12.53125 L 8.171875 -12.53125 L 8.171875 -4.875 L 12.640625 -4.875 L 12.640625 0 Z M 0.546875 0 "/></g></g></g><g clip-path="url(#061a02fffc)"><path fill="#ff7312" d="M 123.515625 50.605469 L 287.746094 50.605469 L 287.746094 72.710938 L 123.515625 72.710938 Z M 123.515625 50.605469 " fill-opacity="1" fill-rule="nonzero"/></g><g fill="#000000" fill-opacity="1"><g transform="translate(133.543019, 66.529477)"><g><path d="M 5.3125 0.15625 C 3.882812 0.15625 2.71875 -0.3125 1.8125 -1.25 C 0.90625 -2.1875 0.453125 -3.554688 0.453125 -5.359375 C 0.453125 -7.160156 0.910156 -8.523438 1.828125 -9.453125 C 2.742188 -10.378906 3.921875 -10.84375 5.359375 -10.84375 C 6.804688 -10.84375 7.972656 -10.382812 8.859375 -9.46875 C 9.742188 -8.5625 10.1875 -7.179688 10.1875 -5.328125 C 10.1875 -3.472656 9.734375 -2.09375 8.828125 -1.1875 C 7.921875 -0.289062 6.75 0.15625 5.3125 0.15625 Z M 5.328125 -7.90625 C 4.835938 -7.90625 4.425781 -7.679688 4.09375 -7.234375 C 3.757812 -6.785156 3.59375 -6.15625 3.59375 -5.34375 C 3.59375 -4.53125 3.75 -3.90625 4.0625 -3.46875 C 4.382812 -3.039062 4.800781 -2.828125 5.3125 -2.828125 C 5.832031 -2.828125 6.25 -3.046875 6.5625 -3.484375 C 6.882812 -3.921875 7.046875 -4.546875 7.046875 -5.359375 C 7.046875 -6.179688 6.878906 -6.8125 6.546875 -7.25 C 6.222656 -7.6875 5.816406 -7.90625 5.328125 -7.90625 Z M 5.328125 -7.90625 "/></g></g></g><g fill="#000000" fill-opacity="1"><g transform="translate(145.05822, 66.529477)"><g><path d="M 9.140625 -0.34375 C 9.140625 -0.125 8.660156 -0.015625 7.703125 -0.015625 C 6.742188 -0.015625 6.226562 -0.09375 6.15625 -0.25 L 3.59375 -5.015625 L 3.59375 -0.265625 C 3.59375 -0.078125 3.117188 0.015625 2.171875 0.015625 C 1.234375 0.015625 0.765625 -0.078125 0.765625 -0.265625 L 0.765625 -10.5 C 0.765625 -10.644531 1.164062 -10.71875 1.96875 -10.71875 C 2.289062 -10.71875 2.660156 -10.691406 3.078125 -10.640625 C 3.503906 -10.585938 3.765625 -10.484375 3.859375 -10.328125 L 6.296875 -5.609375 L 6.296875 -10.421875 C 6.296875 -10.609375 6.769531 -10.703125 7.71875 -10.703125 C 8.664062 -10.703125 9.140625 -10.609375 9.140625 -10.421875 Z M 9.140625 -0.34375 "/></g></g></g><g fill="#000000" fill-opacity="1"><g transform="translate(155.839434, 66.529477)"><g><path d="M 0.609375 -0.90625 L 0.609375 -10.421875 C 0.609375 -10.628906 1.125 -10.734375 2.15625 -10.734375 C 3.195312 -10.734375 3.71875 -10.628906 3.71875 -10.421875 L 3.71875 -2.921875 L 6.078125 -2.921875 C 6.253906 -2.921875 6.378906 -2.679688 6.453125 -2.203125 C 6.484375 -1.960938 6.5 -1.71875 6.5 -1.46875 C 6.5 -1.226562 6.484375 -0.984375 6.453125 -0.734375 C 6.367188 -0.242188 6.238281 0 6.0625 0 L 1.34375 0 C 1.125 0 0.945312 -0.0859375 0.8125 -0.265625 C 0.675781 -0.453125 0.609375 -0.664062 0.609375 -0.90625 Z M 0.609375 -0.90625 "/></g></g></g><g fill="#000000" fill-opacity="1"><g transform="translate(163.363578, 66.529477)"><g><path d="M 1.78125 -2.625 L 1.78125 -8.078125 L 0.6875 -8.078125 C 0.507812 -8.078125 0.390625 -8.296875 0.328125 -8.734375 C 0.296875 -8.953125 0.28125 -9.171875 0.28125 -9.390625 C 0.28125 -9.617188 0.296875 -9.835938 0.328125 -10.046875 C 0.390625 -10.484375 0.507812 -10.703125 0.6875 -10.703125 L 5.828125 -10.703125 C 6.003906 -10.703125 6.125 -10.484375 6.1875 -10.046875 C 6.21875 -9.835938 6.234375 -9.617188 6.234375 -9.390625 C 6.234375 -9.171875 6.21875 -8.953125 6.1875 -8.734375 C 6.125 -8.296875 6.003906 -8.078125 5.828125 -8.078125 L 4.796875 -8.078125 L 4.796875 -2.625 L 5.875 -2.625 C 6.050781 -2.625 6.171875 -2.40625 6.234375 -1.96875 C 6.273438 -1.757812 6.296875 -1.539062 6.296875 -1.3125 C 6.296875 -1.09375 6.273438 -0.875 6.234375 -0.65625 C 6.171875 -0.21875 6.050781 0 5.875 0 L 0.71875 0 C 0.539062 0 0.421875 -0.21875 0.359375 -0.65625 C 0.328125 -0.875 0.3125 -1.09375 0.3125 -1.3125 C 0.3125 -1.539062 0.328125 -1.757812 0.359375 -1.96875 C 0.421875 -2.40625 0.539062 -2.625 0.71875 -2.625 Z M 1.78125 -2.625 "/></g></g></g><g fill="#000000" fill-opacity="1"><g transform="translate(170.795979, 66.529477)"><g><path d="M 9.140625 -0.34375 C 9.140625 -0.125 8.660156 -0.015625 7.703125 -0.015625 C 6.742188 -0.015625 6.226562 -0.09375 6.15625 -0.25 L 3.59375 -5.015625 L 3.59375 -0.265625 C 3.59375 -0.078125 3.117188 0.015625 2.171875 0.015625 C 1.234375 0.015625 0.765625 -0.078125 0.765625 -0.265625 L 0.765625 -10.5 C 0.765625 -10.644531 1.164062 -10.71875 1.96875 -10.71875 C 2.289062 -10.71875 2.660156 -10.691406 3.078125 -10.640625 C 3.503906 -10.585938 3.765625 -10.484375 3.859375 -10.328125 L 6.296875 -5.609375 L 6.296875 -10.421875 C 6.296875 -10.609375 6.769531 -10.703125 7.71875 -10.703125 C 8.664062 -10.703125 9.140625 -10.609375 9.140625 -10.421875 Z M 9.140625 -0.34375 "/></g></g></g><g fill="#000000" fill-opacity="1"><g transform="translate(181.577191, 66.529477)"><g><path d="M 5.734375 -6.453125 C 5.929688 -6.453125 6.03125 -6.097656 6.03125 -5.390625 C 6.03125 -5.171875 6.003906 -4.914062 5.953125 -4.625 C 5.910156 -4.332031 5.828125 -4.1875 5.703125 -4.1875 L 3.765625 -4.1875 L 3.765625 -2.65625 L 6.578125 -2.65625 C 6.753906 -2.65625 6.867188 -2.429688 6.921875 -1.984375 C 6.953125 -1.796875 6.96875 -1.59375 6.96875 -1.375 C 6.96875 -1.15625 6.9375 -0.867188 6.875 -0.515625 C 6.820312 -0.171875 6.722656 0 6.578125 0 L 1.34375 0 C 0.957031 0 0.765625 -0.15625 0.765625 -0.46875 L 0.765625 -10.3125 C 0.765625 -10.570312 0.878906 -10.703125 1.109375 -10.703125 L 6.59375 -10.703125 C 6.8125 -10.703125 6.921875 -10.25 6.921875 -9.34375 C 6.921875 -8.445312 6.8125 -8 6.59375 -8 L 3.765625 -8 L 3.765625 -6.453125 Z M 5.734375 -6.453125 "/></g></g></g><g fill="#000000" fill-opacity="1"><g transform="translate(189.988239, 66.529477)"><g/></g></g><g fill="#000000" fill-opacity="1"><g transform="translate(193.735408, 66.529477)"><g><path d="M 1.15625 -3.734375 C 1.351562 -3.578125 1.6875 -3.363281 2.15625 -3.09375 C 2.632812 -2.832031 3.085938 -2.703125 3.515625 -2.703125 C 3.953125 -2.703125 4.171875 -2.875 4.171875 -3.21875 C 4.171875 -3.363281 4.109375 -3.492188 3.984375 -3.609375 C 3.867188 -3.734375 3.644531 -3.867188 3.3125 -4.015625 C 2.988281 -4.171875 2.742188 -4.289062 2.578125 -4.375 C 2.421875 -4.46875 2.207031 -4.613281 1.9375 -4.8125 C 1.664062 -5.007812 1.457031 -5.21875 1.3125 -5.4375 C 0.90625 -6.007812 0.703125 -6.742188 0.703125 -7.640625 C 0.703125 -8.546875 1.035156 -9.304688 1.703125 -9.921875 C 2.367188 -10.535156 3.242188 -10.84375 4.328125 -10.84375 C 5.066406 -10.84375 5.742188 -10.765625 6.359375 -10.609375 C 6.984375 -10.453125 7.304688 -10.242188 7.328125 -9.984375 C 7.328125 -9.953125 7.328125 -9.921875 7.328125 -9.890625 C 7.328125 -9.535156 7.210938 -9.082031 6.984375 -8.53125 C 6.765625 -7.988281 6.609375 -7.691406 6.515625 -7.640625 C 5.859375 -7.972656 5.273438 -8.140625 4.765625 -8.140625 C 4.253906 -8.140625 4 -7.957031 4 -7.59375 C 4 -7.363281 4.1875 -7.160156 4.5625 -6.984375 C 4.644531 -6.941406 4.757812 -6.882812 4.90625 -6.8125 C 5.0625 -6.75 5.238281 -6.664062 5.4375 -6.5625 C 5.632812 -6.46875 5.847656 -6.347656 6.078125 -6.203125 C 6.304688 -6.054688 6.554688 -5.859375 6.828125 -5.609375 C 7.367188 -5.097656 7.640625 -4.425781 7.640625 -3.59375 C 7.640625 -2.5 7.335938 -1.601562 6.734375 -0.90625 C 6.128906 -0.21875 5.203125 0.132812 3.953125 0.15625 C 3.335938 0.15625 2.78125 0.101562 2.28125 0 C 1.789062 -0.101562 1.359375 -0.300781 0.984375 -0.59375 C 0.617188 -0.894531 0.4375 -1.253906 0.4375 -1.671875 C 0.4375 -2.085938 0.515625 -2.5 0.671875 -2.90625 C 0.828125 -3.320312 0.988281 -3.597656 1.15625 -3.734375 Z M 1.15625 -3.734375 "/></g></g></g><g fill="#000000" fill-opacity="1"><g transform="translate(202.727524, 66.529477)"><g><path d="M 9.09375 -0.265625 C 9.09375 -0.0859375 8.578125 0 7.546875 0 C 6.515625 0 6 -0.0859375 6 -0.265625 L 6 -3.78125 L 3.859375 -3.78125 L 3.859375 -0.265625 C 3.859375 -0.0859375 3.34375 0 2.3125 0 C 1.28125 0 0.765625 -0.0859375 0.765625 -0.265625 L 0.765625 -10.40625 C 0.765625 -10.613281 1.28125 -10.71875 2.3125 -10.71875 C 3.34375 -10.71875 3.859375 -10.613281 3.859375 -10.40625 L 3.859375 -6.8125 L 6 -6.8125 L 6 -10.375 C 6 -10.507812 6.253906 -10.609375 6.765625 -10.671875 C 7.023438 -10.691406 7.285156 -10.703125 7.546875 -10.703125 L 8.328125 -10.671875 C 8.835938 -10.609375 9.09375 -10.507812 9.09375 -10.375 Z M 9.09375 -0.265625 "/></g></g></g><g fill="#000000" fill-opacity="1"><g transform="translate(213.44757, 66.529477)"><g><path d="M 5.3125 0.15625 C 3.882812 0.15625 2.71875 -0.3125 1.8125 -1.25 C 0.90625 -2.1875 0.453125 -3.554688 0.453125 -5.359375 C 0.453125 -7.160156 0.910156 -8.523438 1.828125 -9.453125 C 2.742188 -10.378906 3.921875 -10.84375 5.359375 -10.84375 C 6.804688 -10.84375 7.972656 -10.382812 8.859375 -9.46875 C 9.742188 -8.5625 10.1875 -7.179688 10.1875 -5.328125 C 10.1875 -3.472656 9.734375 -2.09375 8.828125 -1.1875 C 7.921875 -0.289062 6.75 0.15625 5.3125 0.15625 Z M 5.328125 -7.90625 C 4.835938 -7.90625 4.425781 -7.679688 4.09375 -7.234375 C 3.757812 -6.785156 3.59375 -6.15625 3.59375 -5.34375 C 3.59375 -4.53125 3.75 -3.90625 4.0625 -3.46875 C 4.382812 -3.039062 4.800781 -2.828125 5.3125 -2.828125 C 5.832031 -2.828125 6.25 -3.046875 6.5625 -3.484375 C 6.882812 -3.921875 7.046875 -4.546875 7.046875 -5.359375 C 7.046875 -6.179688 6.878906 -6.8125 6.546875 -7.25 C 6.222656 -7.6875 5.816406 -7.90625 5.328125 -7.90625 Z M 5.328125 -7.90625 "/></g></g></g><g fill="#000000" fill-opacity="1"><g transform="translate(224.962768, 66.529477)"><g><path d="M 0.328125 -10.5625 C 0.296875 -10.664062 0.804688 -10.71875 1.859375 -10.71875 C 3.035156 -10.71875 3.640625 -10.625 3.671875 -10.4375 L 4.421875 -4 L 6.046875 -10.515625 C 6.097656 -10.660156 6.492188 -10.734375 7.234375 -10.734375 C 7.984375 -10.734375 8.378906 -10.664062 8.421875 -10.53125 L 10.015625 -3.96875 L 10.90625 -10.46875 C 10.925781 -10.570312 11.160156 -10.644531 11.609375 -10.6875 C 12.054688 -10.726562 12.421875 -10.75 12.703125 -10.75 C 13.765625 -10.75 14.28125 -10.679688 14.25 -10.546875 L 12.40625 -0.390625 C 12.363281 -0.242188 12.070312 -0.132812 11.53125 -0.0625 C 10.988281 0.0078125 10.550781 0.046875 10.21875 0.046875 C 8.957031 0.046875 8.296875 -0.09375 8.234375 -0.375 L 7.1875 -4.59375 L 6.0625 -0.390625 C 6.019531 -0.210938 5.660156 -0.0820312 4.984375 0 C 4.640625 0.03125 4.296875 0.046875 3.953125 0.046875 L 2.96875 0 C 2.289062 -0.0703125 1.929688 -0.195312 1.890625 -0.375 Z M 0.328125 -10.5625 "/></g></g></g><g fill="#000000" fill-opacity="1"><g transform="translate(240.407857, 66.529477)"><g><path d="M 2.09375 0.03125 C 1.164062 0.03125 0.703125 -0.0703125 0.703125 -0.28125 L 0.703125 -10.1875 C 0.703125 -10.53125 0.859375 -10.703125 1.171875 -10.703125 L 3.875 -10.703125 C 5.382812 -10.703125 6.472656 -10.390625 7.140625 -9.765625 C 7.804688 -9.148438 8.140625 -8.25 8.140625 -7.0625 C 8.140625 -6.082031 7.820312 -5.1875 7.1875 -4.375 C 6.875 -3.96875 6.410156 -3.640625 5.796875 -3.390625 C 5.179688 -3.148438 4.46875 -3.03125 3.65625 -3.03125 L 3.65625 -0.296875 C 3.65625 -0.171875 3.460938 -0.0820312 3.078125 -0.03125 C 2.703125 0.0078125 2.375 0.03125 2.09375 0.03125 Z M 3.65625 -8.046875 L 3.65625 -5.625 L 3.859375 -5.625 C 4.210938 -5.625 4.507812 -5.734375 4.75 -5.953125 C 5 -6.179688 5.125 -6.5 5.125 -6.90625 C 5.125 -7.320312 5.039062 -7.613281 4.875 -7.78125 C 4.707031 -7.957031 4.410156 -8.046875 3.984375 -8.046875 Z M 3.65625 -8.046875 "/></g></g></g><g fill="#000000" fill-opacity="1"><g transform="translate(249.996345, 66.529477)"><g><path d="M 1.78125 -2.625 L 1.78125 -8.078125 L 0.6875 -8.078125 C 0.507812 -8.078125 0.390625 -8.296875 0.328125 -8.734375 C 0.296875 -8.953125 0.28125 -9.171875 0.28125 -9.390625 C 0.28125 -9.617188 0.296875 -9.835938 0.328125 -10.046875 C 0.390625 -10.484375 0.507812 -10.703125 0.6875 -10.703125 L 5.828125 -10.703125 C 6.003906 -10.703125 6.125 -10.484375 6.1875 -10.046875 C 6.21875 -9.835938 6.234375 -9.617188 6.234375 -9.390625 C 6.234375 -9.171875 6.21875 -8.953125 6.1875 -8.734375 C 6.125 -8.296875 6.003906 -8.078125 5.828125 -8.078125 L 4.796875 -8.078125 L 4.796875 -2.625 L 5.875 -2.625 C 6.050781 -2.625 6.171875 -2.40625 6.234375 -1.96875 C 6.273438 -1.757812 6.296875 -1.539062 6.296875 -1.3125 C 6.296875 -1.09375 6.273438 -0.875 6.234375 -0.65625 C 6.171875 -0.21875 6.050781 0 5.875 0 L 0.71875 0 C 0.539062 0 0.421875 -0.21875 0.359375 -0.65625 C 0.328125 -0.875 0.3125 -1.09375 0.3125 -1.3125 C 0.3125 -1.539062 0.328125 -1.757812 0.359375 -1.96875 C 0.421875 -2.40625 0.539062 -2.625 0.71875 -2.625 Z M 1.78125 -2.625 "/></g></g></g><g fill="#000000" fill-opacity="1"><g transform="translate(257.428743, 66.529477)"><g><path d="M 9.140625 -0.34375 C 9.140625 -0.125 8.660156 -0.015625 7.703125 -0.015625 C 6.742188 -0.015625 6.226562 -0.09375 6.15625 -0.25 L 3.59375 -5.015625 L 3.59375 -0.265625 C 3.59375 -0.078125 3.117188 0.015625 2.171875 0.015625 C 1.234375 0.015625 0.765625 -0.078125 0.765625 -0.265625 L 0.765625 -10.5 C 0.765625 -10.644531 1.164062 -10.71875 1.96875 -10.71875 C 2.289062 -10.71875 2.660156 -10.691406 3.078125 -10.640625 C 3.503906 -10.585938 3.765625 -10.484375 3.859375 -10.328125 L 6.296875 -5.609375 L 6.296875 -10.421875 C 6.296875 -10.609375 6.769531 -10.703125 7.71875 -10.703125 C 8.664062 -10.703125 9.140625 -10.609375 9.140625 -10.421875 Z M 9.140625 -0.34375 "/></g></g></g><g fill="#000000" fill-opacity="1"><g transform="translate(268.209955, 66.529477)"><g><path d="M 6.421875 -3.203125 L 6.453125 -5.28125 C 6.453125 -5.414062 6.597656 -5.503906 6.890625 -5.546875 C 7.191406 -5.597656 7.441406 -5.625 7.640625 -5.625 L 8.234375 -5.578125 C 8.617188 -5.515625 8.8125 -5.410156 8.8125 -5.265625 L 8.75 -0.46875 C 8.539062 -0.332031 8.128906 -0.191406 7.515625 -0.046875 C 6.898438 0.0859375 6.195312 0.15625 5.40625 0.15625 C 3.925781 0.15625 2.726562 -0.320312 1.8125 -1.28125 C 0.90625 -2.238281 0.453125 -3.644531 0.453125 -5.5 C 0.453125 -7.082031 0.894531 -8.367188 1.78125 -9.359375 C 2.675781 -10.347656 3.90625 -10.84375 5.46875 -10.84375 C 6.1875 -10.84375 6.832031 -10.773438 7.40625 -10.640625 C 7.988281 -10.503906 8.382812 -10.316406 8.59375 -10.078125 C 8.601562 -9.992188 8.609375 -9.835938 8.609375 -9.609375 C 8.609375 -9.390625 8.53125 -9.070312 8.375 -8.65625 C 8.226562 -8.25 8.054688 -7.941406 7.859375 -7.734375 C 7.671875 -7.535156 7.53125 -7.4375 7.4375 -7.4375 C 7.351562 -7.4375 7.257812 -7.472656 7.15625 -7.546875 C 7.0625 -7.617188 6.875 -7.695312 6.59375 -7.78125 C 6.3125 -7.875 6.035156 -7.921875 5.765625 -7.921875 C 5.128906 -7.921875 4.613281 -7.71875 4.21875 -7.3125 C 3.832031 -6.90625 3.640625 -6.269531 3.640625 -5.40625 C 3.640625 -4.550781 3.835938 -3.898438 4.234375 -3.453125 C 4.640625 -3.015625 5.101562 -2.796875 5.625 -2.796875 C 6.15625 -2.796875 6.421875 -2.929688 6.421875 -3.203125 Z M 6.421875 -3.203125 "/></g></g></g><g clip-path="url(#a0b0dc3f1e)"><path fill="#ffffef" d="M 66.871094 43.964844 L 62.515625 43.964844 L 62.515625 48.519531 L 71.761719 48.519531 C 74.703125 48.519531 77.199219 46.613281 78.082031 43.964844 L 66.871094 43.964844 " fill-opacity="1" fill-rule="nonzero"/></g><g clip-path="url(#f8301a8bbe)"><path fill="#ffffef" d="M 90.984375 26.4375 C 88.042969 26.4375 85.546875 28.347656 84.667969 30.996094 L 100.230469 30.996094 L 100.230469 26.4375 L 90.984375 26.4375 " fill-opacity="1" fill-rule="nonzero"/></g><g clip-path="url(#3add5c9337)"><path fill="#ffffef" d="M 93.574219 35.203125 L 70.296875 35.203125 L 70.296875 36.449219 L 65.265625 33.097656 L 70.296875 29.746094 L 70.296875 30.996094 L 78.421875 30.996094 L 78.421875 26.4375 L 69.175781 26.4375 C 65.496094 26.4375 62.515625 29.421875 62.515625 33.097656 C 62.515625 36.777344 65.496094 39.757812 69.175781 39.757812 L 92.449219 39.757812 L 92.449219 38.511719 L 97.484375 41.863281 L 92.449219 45.214844 L 92.449219 43.964844 L 84.324219 43.964844 L 84.324219 48.519531 L 93.574219 48.519531 C 97.25 48.519531 100.230469 45.539062 100.230469 41.863281 C 100.230469 38.183594 97.25 35.203125 93.574219 35.203125 " fill-opacity="1" fill-rule="nonzero"/></g></svg>