<svg xmlns="http://www.w3.org/2000/svg" xmlns:xlink="http://www.w3.org/1999/xlink" width="158" zoomAndPan="magnify" viewBox="0 0 118.5 71.249999" height="95" preserveAspectRatio="xMidYMid meet" version="1.0"><defs><clipPath id="9a62fa18d1"><path d="M 37 0 L 116.894531 0 L 116.894531 50 L 37 50 Z M 37 0 " clip-rule="nonzero"/></clipPath><clipPath id="c25874acda"><path d="M 48 52 L 67 52 L 67 69.765625 L 48 69.765625 Z M 48 52 " clip-rule="nonzero"/></clipPath><clipPath id="d40cbec1dc"><path d="M 73 52 L 92 52 L 92 69.765625 L 73 69.765625 Z M 73 52 " clip-rule="nonzero"/></clipPath><clipPath id="8176cd5e3f"><path d="M 0.371094 30 L 47 30 L 47 36 L 0.371094 36 Z M 0.371094 30 " clip-rule="nonzero"/></clipPath><clipPath id="0a44c86687"><path d="M 62.382812 36.8125 L 77.835938 36.8125 L 77.835938 41.382812 L 62.382812 41.382812 Z M 62.382812 36.8125 " clip-rule="nonzero"/></clipPath><clipPath id="217a8b73a1"><path d="M 84.300781 19.476562 L 99.480469 19.476562 L 99.480469 24 L 84.300781 24 Z M 84.300781 19.476562 " clip-rule="nonzero"/></clipPath><clipPath id="82a1db3cfa"><path d="M 62.382812 19.476562 L 99.480469 19.476562 L 99.480469 41.382812 L 62.382812 41.382812 Z M 62.382812 19.476562 " clip-rule="nonzero"/></clipPath></defs><g clip-path="url(#9a62fa18d1)"><path fill="#ff9e01" d="M 116.894531 13.636719 L 108.835938 47.097656 C 108.835938 47.417969 108.773438 47.726562 108.648438 48.023438 C 108.527344 48.320312 108.351562 48.582031 108.125 48.808594 C 107.894531 49.039062 107.632812 49.214844 107.335938 49.335938 C 107.039062 49.460938 106.730469 49.523438 106.410156 49.523438 L 52.125 49.917969 C 51.800781 49.914062 51.492188 49.855469 51.195312 49.730469 C 50.898438 49.605469 50.636719 49.429688 50.410156 49.203125 C 50.183594 48.976562 50.007812 48.714844 49.882812 48.417969 C 49.761719 48.121094 49.699219 47.8125 49.699219 47.492188 L 49.699219 13.632812 C 49.695312 13.566406 49.699219 13.5 49.707031 13.433594 L 48.972656 6.882812 L 40.949219 6.882812 C 40.503906 6.867188 40.078125 6.765625 39.675781 6.585938 C 39.269531 6.402344 38.914062 6.152344 38.605469 5.832031 C 38.296875 5.511719 38.058594 5.144531 37.894531 4.730469 C 37.726562 4.320312 37.644531 3.890625 37.644531 3.449219 C 37.644531 3.003906 37.726562 2.574219 37.894531 2.164062 C 38.058594 1.75 38.296875 1.386719 38.605469 1.066406 C 38.914062 0.746094 39.269531 0.492188 39.675781 0.3125 C 40.078125 0.128906 40.503906 0.03125 40.949219 0.0117188 L 55.113281 0.0117188 C 55.113281 0.0234375 55.113281 0.0351562 55.113281 0.046875 L 55.878906 6.886719 L 56.363281 11.210938 L 114.464844 11.210938 C 114.789062 11.210938 115.097656 11.273438 115.394531 11.398438 C 115.691406 11.519531 115.953125 11.695312 116.179688 11.925781 C 116.40625 12.152344 116.582031 12.414062 116.707031 12.710938 C 116.832031 13.007812 116.890625 13.316406 116.894531 13.636719 Z M 116.894531 13.636719 " fill-opacity="1" fill-rule="nonzero"/></g><g clip-path="url(#c25874acda)"><path fill="#ff7312" d="M 66.589844 60.917969 C 66.589844 61.5 66.53125 62.074219 66.417969 62.644531 C 66.304688 63.214844 66.136719 63.765625 65.917969 64.304688 C 65.695312 64.839844 65.421875 65.347656 65.097656 65.832031 C 64.777344 66.3125 64.410156 66.761719 64 67.171875 C 63.589844 67.582031 63.140625 67.949219 62.660156 68.269531 C 62.175781 68.59375 61.667969 68.867188 61.132812 69.085938 C 60.59375 69.308594 60.042969 69.476562 59.472656 69.589844 C 58.902344 69.703125 58.328125 69.761719 57.746094 69.761719 C 57.167969 69.761719 56.589844 69.703125 56.023438 69.589844 C 55.453125 69.476562 54.898438 69.308594 54.363281 69.085938 C 53.828125 68.867188 53.316406 68.59375 52.835938 68.269531 C 52.351562 67.949219 51.90625 67.582031 51.496094 67.171875 C 51.085938 66.761719 50.71875 66.3125 50.394531 65.832031 C 50.074219 65.347656 49.800781 64.839844 49.578125 64.304688 C 49.355469 63.765625 49.1875 63.214844 49.074219 62.644531 C 48.960938 62.074219 48.90625 61.5 48.90625 60.917969 C 48.90625 60.339844 48.960938 59.765625 49.074219 59.195312 C 49.1875 58.625 49.355469 58.074219 49.578125 57.535156 C 49.800781 57 50.074219 56.492188 50.394531 56.007812 C 50.71875 55.523438 51.085938 55.078125 51.496094 54.667969 C 51.90625 54.257812 52.351562 53.890625 52.835938 53.570312 C 53.316406 53.246094 53.828125 52.972656 54.363281 52.75 C 54.898438 52.53125 55.453125 52.363281 56.023438 52.25 C 56.589844 52.136719 57.167969 52.078125 57.746094 52.078125 C 58.328125 52.078125 58.902344 52.136719 59.472656 52.25 C 60.042969 52.363281 60.59375 52.53125 61.132812 52.75 C 61.667969 52.972656 62.175781 53.246094 62.660156 53.570312 C 63.140625 53.890625 63.589844 54.257812 64 54.667969 C 64.410156 55.078125 64.777344 55.523438 65.097656 56.007812 C 65.421875 56.492188 65.695312 57 65.917969 57.535156 C 66.136719 58.074219 66.304688 58.625 66.417969 59.195312 C 66.53125 59.765625 66.589844 60.339844 66.589844 60.917969 Z M 66.589844 60.917969 " fill-opacity="1" fill-rule="nonzero"/></g><g clip-path="url(#d40cbec1dc)"><path fill="#ff7312" d="M 91.542969 60.917969 C 91.542969 61.5 91.488281 62.074219 91.375 62.644531 C 91.261719 63.214844 91.09375 63.765625 90.871094 64.304688 C 90.648438 64.839844 90.378906 65.347656 90.054688 65.832031 C 89.730469 66.3125 89.367188 66.761719 88.953125 67.171875 C 88.542969 67.582031 88.097656 67.949219 87.613281 68.269531 C 87.132812 68.59375 86.621094 68.867188 86.085938 69.085938 C 85.550781 69.308594 84.996094 69.476562 84.425781 69.589844 C 83.859375 69.703125 83.28125 69.761719 82.703125 69.761719 C 82.121094 69.761719 81.546875 69.703125 80.976562 69.589844 C 80.40625 69.476562 79.855469 69.308594 79.320312 69.085938 C 78.78125 68.867188 78.273438 68.59375 77.789062 68.269531 C 77.308594 67.949219 76.859375 67.582031 76.449219 67.171875 C 76.039062 66.761719 75.671875 66.3125 75.351562 65.832031 C 75.027344 65.347656 74.753906 64.839844 74.535156 64.304688 C 74.3125 63.765625 74.144531 63.214844 74.03125 62.644531 C 73.917969 62.074219 73.859375 61.5 73.859375 60.917969 C 73.859375 60.339844 73.917969 59.765625 74.03125 59.195312 C 74.144531 58.625 74.3125 58.074219 74.535156 57.535156 C 74.753906 57 75.027344 56.492188 75.351562 56.007812 C 75.671875 55.523438 76.039062 55.078125 76.449219 54.667969 C 76.859375 54.257812 77.308594 53.890625 77.789062 53.570312 C 78.273438 53.246094 78.78125 52.972656 79.320312 52.75 C 79.855469 52.53125 80.40625 52.363281 80.976562 52.25 C 81.546875 52.136719 82.121094 52.078125 82.703125 52.078125 C 83.28125 52.078125 83.859375 52.136719 84.425781 52.25 C 84.996094 52.363281 85.550781 52.53125 86.085938 52.75 C 86.621094 52.972656 87.132812 53.246094 87.613281 53.570312 C 88.097656 53.890625 88.542969 54.257812 88.953125 54.667969 C 89.367188 55.078125 89.730469 55.523438 90.054688 56.007812 C 90.378906 56.492188 90.648438 57 90.871094 57.535156 C 91.09375 58.074219 91.261719 58.625 91.375 59.195312 C 91.488281 59.765625 91.542969 60.339844 91.542969 60.917969 Z M 91.542969 60.917969 " fill-opacity="1" fill-rule="nonzero"/></g><path fill="#ff9e01" d="M 23.554688 14.15625 L 43.796875 14.15625 C 44.109375 14.15625 44.410156 14.21875 44.699219 14.335938 C 44.988281 14.457031 45.242188 14.625 45.464844 14.847656 C 45.683594 15.070312 45.855469 15.324219 45.972656 15.613281 C 46.09375 15.902344 46.152344 16.203125 46.152344 16.515625 L 46.152344 17.105469 C 46.152344 17.417969 46.09375 17.71875 45.972656 18.007812 C 45.855469 18.296875 45.683594 18.550781 45.464844 18.773438 C 45.242188 18.992188 44.988281 19.164062 44.699219 19.28125 C 44.410156 19.402344 44.109375 19.460938 43.796875 19.460938 L 23.554688 19.460938 C 23.242188 19.460938 22.941406 19.402344 22.652344 19.28125 C 22.367188 19.164062 22.109375 18.992188 21.890625 18.773438 C 21.667969 18.550781 21.496094 18.296875 21.378906 18.007812 C 21.257812 17.71875 21.199219 17.417969 21.199219 17.105469 L 21.199219 16.515625 C 21.199219 16.203125 21.257812 15.902344 21.378906 15.613281 C 21.496094 15.324219 21.667969 15.070312 21.890625 14.847656 C 22.109375 14.625 22.367188 14.457031 22.652344 14.335938 C 22.941406 14.21875 23.242188 14.15625 23.554688 14.15625 Z M 23.554688 14.15625 " fill-opacity="1" fill-rule="nonzero"/><path fill="#ff9e01" d="M 23.554688 47.164062 L 43.796875 47.164062 C 44.109375 47.164062 44.410156 47.226562 44.699219 47.34375 C 44.988281 47.464844 45.242188 47.636719 45.464844 47.855469 C 45.683594 48.078125 45.855469 48.332031 45.972656 48.621094 C 46.09375 48.910156 46.152344 49.210938 46.152344 49.523438 L 46.152344 50.113281 C 46.152344 50.425781 46.09375 50.726562 45.972656 51.015625 C 45.855469 51.304688 45.683594 51.558594 45.464844 51.78125 C 45.242188 52 44.988281 52.171875 44.699219 52.292969 C 44.410156 52.410156 44.109375 52.46875 43.796875 52.46875 L 23.554688 52.46875 C 23.242188 52.46875 22.941406 52.410156 22.652344 52.292969 C 22.367188 52.171875 22.109375 52 21.890625 51.78125 C 21.667969 51.558594 21.496094 51.304688 21.378906 51.015625 C 21.257812 50.726562 21.199219 50.425781 21.199219 50.113281 L 21.199219 49.523438 C 21.199219 49.210938 21.257812 48.910156 21.378906 48.621094 C 21.496094 48.332031 21.667969 48.078125 21.890625 47.855469 C 22.109375 47.636719 22.367188 47.464844 22.652344 47.34375 C 22.941406 47.226562 23.242188 47.164062 23.554688 47.164062 Z M 23.554688 47.164062 " fill-opacity="1" fill-rule="nonzero"/><g clip-path="url(#8176cd5e3f)"><path fill="#ff9e01" d="M 3.023438 30.269531 L 43.5 30.269531 C 43.851562 30.269531 44.191406 30.335938 44.515625 30.472656 C 44.839844 30.605469 45.128906 30.796875 45.378906 31.046875 C 45.625 31.292969 45.816406 31.582031 45.953125 31.90625 C 46.085938 32.230469 46.152344 32.570312 46.152344 32.921875 C 46.152344 33.273438 46.085938 33.613281 45.953125 33.9375 C 45.816406 34.261719 45.625 34.546875 45.378906 34.796875 C 45.128906 35.046875 44.839844 35.238281 44.515625 35.371094 C 44.191406 35.507812 43.851562 35.574219 43.5 35.574219 L 3.023438 35.574219 C 2.671875 35.574219 2.332031 35.507812 2.007812 35.371094 C 1.683594 35.238281 1.394531 35.046875 1.148438 34.796875 C 0.898438 34.546875 0.707031 34.261719 0.570312 33.9375 C 0.4375 33.613281 0.371094 33.273438 0.371094 32.921875 C 0.371094 32.570312 0.4375 32.230469 0.570312 31.90625 C 0.707031 31.582031 0.898438 31.292969 1.148438 31.046875 C 1.394531 30.796875 1.683594 30.605469 2.007812 30.472656 C 2.332031 30.335938 2.671875 30.269531 3.023438 30.269531 Z M 3.023438 30.269531 " fill-opacity="1" fill-rule="nonzero"/></g><g clip-path="url(#0a44c86687)"><path fill="#ffffef" d="M 66.703125 36.863281 L 62.382812 36.863281 L 62.382812 41.382812 L 71.554688 41.382812 C 74.472656 41.382812 76.949219 39.488281 77.820312 36.863281 L 66.703125 36.863281 " fill-opacity="1" fill-rule="nonzero"/></g><g clip-path="url(#217a8b73a1)"><path fill="#ffffef" d="M 90.621094 19.476562 C 87.703125 19.476562 85.226562 21.371094 84.355469 23.996094 L 99.792969 23.996094 L 99.792969 19.476562 L 90.621094 19.476562 " fill-opacity="1" fill-rule="nonzero"/></g><g clip-path="url(#82a1db3cfa)"><path fill="#ffffef" d="M 93.1875 28.171875 L 70.101562 28.171875 L 70.101562 29.410156 L 65.109375 26.082031 L 70.101562 22.757812 L 70.101562 23.996094 L 78.160156 23.996094 L 78.160156 19.476562 L 68.988281 19.476562 C 65.339844 19.476562 62.382812 22.433594 62.382812 26.082031 C 62.382812 29.730469 65.339844 32.691406 68.988281 32.691406 L 92.074219 32.691406 L 92.074219 31.453125 L 97.066406 34.777344 L 92.074219 38.101562 L 92.074219 36.863281 L 84.015625 36.863281 L 84.015625 41.382812 L 93.1875 41.382812 C 96.835938 41.382812 99.792969 38.425781 99.792969 34.777344 C 99.792969 31.128906 96.835938 28.171875 93.1875 28.171875 " fill-opacity="1" fill-rule="nonzero"/></g></svg>